<svg width="120" height="120" viewBox="0 0 120 120" fill="none" xmlns="http://www.w3.org/2000/svg">
<path d="M60 112.5C31.005 112.5 7.5 88.995 7.5 60C7.5 31.005 31.005 7.5 60 7.5C88.995 7.5 112.5 31.005 112.5 60C112.5 88.995 88.995 112.5 60 112.5ZM45 75.5298C45 78.6027 47.4571 81.0938 50.4881 81.0938C51.4533 81.0916 52.4004 80.8323 53.2321 80.3426L79.7578 64.8192C81.4547 63.825 82.5 61.9888 82.5 60.0018C82.5 58.0147 81.4547 56.1785 79.7578 55.1843L53.2321 39.6517C52.3997 39.1635 51.4522 38.9061 50.4872 38.9063C49.5222 38.9065 48.5747 39.1641 47.7425 39.6526C46.0443 40.6473 44.9987 42.4853 45 44.4737V75.5298Z" fill="#A54136"/>
</svg>
