<svg width="18" height="18" viewBox="0 0 18 18" fill="none" xmlns="http://www.w3.org/2000/svg">
<path d="M3.75 7.31429V10.6801C3.75 11.9168 3.75 11.9168 4.91667 12.7043L8.125 14.5593C8.60917 14.8393 9.39667 14.8393 9.875 14.5593L13.0833 12.7043C14.25 11.9168 14.25 11.9168 14.25 10.686V7.31429C14.25 6.08346 14.25 6.08346 13.0833 5.29596L9.875 3.44096C9.39667 3.16096 8.60917 3.16096 8.125 3.44096L4.91667 5.29596C3.75 6.08346 3.75 6.08346 3.75 7.31429Z" stroke="#FCECD2" strokeLinecap="round" strokeLinejoin="round"/>
<path d="M9 10.75C9.9665 10.75 10.75 9.9665 10.75 9C10.75 8.0335 9.9665 7.25 9 7.25C8.0335 7.25 7.25 8.0335 7.25 9C7.25 9.9665 8.0335 10.75 9 10.75Z" stroke="#FCECD2" strokeLinecap="round" strokeLinejoin="round"/>
</svg>
