<svg width="24" height="24" viewBox="0 0 24 24" fill="none" xmlns="http://www.w3.org/2000/svg">
<path d="M17.3943 2C18.5796 2 19.7164 2.47087 20.5546 3.30903C21.3927 4.14719 21.8636 5.28398 21.8636 6.46931V15.1596C21.8636 16.345 21.3927 17.4818 20.5546 18.3199C19.7164 19.1581 18.5796 19.629 17.3943 19.629H14.8821L12.6067 21.7355C12.4231 21.9055 12.1821 22 11.9318 22C11.6816 22 11.4405 21.9055 11.2569 21.7355L8.98206 19.629H6.46931C5.28398 19.629 4.14719 19.1581 3.30903 18.3199C2.47087 17.4818 2 16.345 2 15.1596V6.46931C2 5.28398 2.47087 4.14719 3.30903 3.30903C4.14719 2.47087 5.28398 2 6.46931 2H17.3943ZM17.3943 3.48977H6.46931C5.67909 3.48977 4.92123 3.80369 4.36246 4.36246C3.80369 4.92123 3.48977 5.67909 3.48977 6.46931V15.1596C3.48977 15.9499 3.80369 16.7077 4.36246 17.2665C4.92123 17.8253 5.67909 18.1392 6.46931 18.1392H8.98156C9.35685 18.1392 9.71828 18.281 9.99361 18.536L11.9318 20.3301L13.87 18.536C14.1453 18.281 14.5068 18.1392 14.8821 18.1392H17.3943C18.1845 18.1392 18.9424 17.8253 19.5012 17.2665C20.0599 16.7077 20.3738 15.9499 20.3738 15.1596V6.46931C20.3738 5.67909 20.0599 4.92123 19.5012 4.36246C18.9424 3.80369 18.1845 3.48977 17.3943 3.48977ZM11.9318 9.44885C12.2693 9.44912 12.5928 9.5834 12.8313 9.82216C13.0698 10.0609 13.2037 10.3846 13.2036 10.7221C13.2037 11.0596 13.0698 11.3833 12.8313 11.6221C12.5928 11.8608 12.2693 11.9951 11.9318 11.9954C11.5943 11.9951 11.2708 11.8608 11.0323 11.6221C10.7938 11.3833 10.6599 11.0596 10.66 10.7221C10.6599 10.3846 10.7938 10.0609 11.0323 9.82216C11.2708 9.5834 11.5943 9.44912 11.9318 9.44885ZM7.35324 9.44885C7.69071 9.44912 8.01427 9.5834 8.25276 9.82216C8.49124 10.0609 8.62514 10.3846 8.62501 10.7221C8.62514 11.0595 8.49131 11.3831 8.25293 11.6219C8.01455 11.8606 7.69113 11.995 7.35374 11.9954C7.01627 11.9951 6.69272 11.8608 6.45423 11.6221C6.21574 11.3833 6.08184 11.0596 6.08197 10.7221C6.08184 10.3847 6.21567 10.0611 6.45405 9.82234C6.69243 9.58359 7.01586 9.44925 7.35324 9.44885ZM16.5104 9.44885C16.8478 9.44925 17.1712 9.58359 17.4096 9.82234C17.6479 10.0611 17.7818 10.3847 17.7816 10.7221C17.7818 11.0595 17.6479 11.3831 17.4096 11.6219C17.1712 11.8606 16.8478 11.995 16.5104 11.9954C16.1729 11.9951 15.8493 11.8608 15.6109 11.6221C15.3724 11.3833 15.2385 11.0596 15.2386 10.7221C15.2385 10.3847 15.3723 10.0611 15.6107 9.82234C15.8491 9.58359 16.1725 9.44925 16.5099 9.44885H16.5104Z" fill="#A54136"/>
</svg>
