<svg width="24" height="24" viewBox="0 0 24 24" fill="none" xmlns="http://www.w3.org/2000/svg">
<path d="M12.2101 4.19386L11.8837 3.8674L11.7469 3.73452C9.24241 1.37325 5.30679 1.42794 2.86733 3.8674C0.377558 6.35717 0.377558 10.394 2.86733 12.8837L11.8235 21.8399C11.926 21.9424 12.0651 22 12.2101 22C12.3551 22 12.4942 21.9424 12.5967 21.8399L21.5529 12.8837C24.0427 10.394 24.0427 6.35717 21.5529 3.8674C19.0631 1.37763 15.0263 1.37763 12.5366 3.8674L12.2101 4.19386ZM10.6128 4.91952L10.732 5.036L12.2101 6.51356L13.6964 5.02725C14.1361 4.58753 14.6581 4.23872 15.2326 4.00074C15.8071 3.76277 16.4229 3.64028 17.0447 3.64028C17.6666 3.64028 18.2823 3.76277 18.8568 4.00074C19.4313 4.23872 19.9534 4.58753 20.3931 5.02725L20.5019 5.1399C21.3415 6.03705 21.7994 7.22544 21.779 8.45401C21.7586 9.68257 21.2614 10.8551 20.3925 11.7239L12.2101 19.9063L4.02718 11.7239C3.15553 10.8545 2.65671 9.67991 2.63648 8.44902C2.61624 7.21812 3.07619 6.02774 3.91879 5.13022C4.7614 4.23271 5.92042 3.69865 7.15015 3.64124C8.37987 3.58384 9.58361 4.00762 10.5062 4.82273L10.6128 4.91952Z" fill="#A54136"/>
</svg>
