<svg width="35" height="36" viewBox="0 0 35 36" fill="none" xmlns="http://www.w3.org/2000/svg">
<g clipPath="url(#clip0_1038_2970)">
<path d="M22.5925 5.94635C23.3481 7.60178 24.0671 8.52916 24.7641 9.07397C25.369 9.54688 25.9349 9.70423 26.3242 9.81247C26.3869 9.82991 26.445 9.84608 26.498 9.86208C26.6986 9.92267 26.9114 10.1268 27.0339 10.4377C27.1607 10.7596 27.1218 11.013 27.0566 11.1152C26.8887 11.3781 26.8143 11.6869 26.7631 11.9251C26.7465 12.0024 26.7318 12.0754 26.7175 12.146C26.6816 12.3234 26.6489 12.4852 26.598 12.6598C26.4704 13.0978 26.2556 13.5076 25.6844 13.8223C25.5186 13.9137 25.3577 13.9986 25.2016 14.0811C24.7105 14.3404 24.2677 14.5743 23.8739 14.9003C23.3246 15.355 22.8661 15.9776 22.2874 17.0626C21.9551 17.6855 21.7256 18.6162 21.568 19.6305C21.4077 20.6626 21.3129 21.8454 21.2795 23.0144C21.2462 24.1838 21.2741 25.3512 21.3628 26.3537C21.4497 27.3356 21.5998 28.2239 21.8411 28.7934C21.9982 29.1642 21.9749 29.5204 21.786 29.891C21.5865 30.2828 21.1945 30.6982 20.6058 31.1004C19.4299 31.9035 17.6224 32.5489 15.6325 32.8376C13.6465 33.1259 11.5453 33.0491 9.78917 32.4709C8.04199 31.8955 6.6776 30.8418 6.03728 29.1863C3.22917 21.9263 4.15874 14.3838 7.65252 9.64231C9.40906 7.25844 12.5295 4.73303 15.5527 3.64392C17.061 3.10055 18.4854 2.93601 19.6826 3.2614C20.8514 3.57906 21.8791 4.38323 22.5925 5.94635Z" stroke="#A54136" strokeWidth="1.20732"/>
<path d="M19.794 1.75148C19.4297 1.32037 18.822 1.18616 18.281 1.20133C17.5629 1.22125 16.8703 1.5115 16.3213 1.96869C15.5255 2.66348 15.0806 3.69737 15.3829 4.74596C15.6335 5.61623 16.353 6.26976 17.2777 6.27261C18.2611 6.27593 19.1725 5.78175 19.6742 4.93282C19.9541 4.4614 20.1005 3.91838 20.1398 3.37392C20.1791 2.82947 20.1682 2.19444 19.794 1.75148Z" fill="#A54136"/>
<path d="M31.1943 26.753C30.9513 26.2877 30.597 25.6702 30.0967 25.4459C29.6519 25.2462 29.1289 25.3425 28.6756 25.4587C28.3265 25.5483 27.984 25.6636 27.6434 25.7817C27.3407 25.8865 27.039 26.0226 26.7273 26.0956C26.093 26.2441 25.6287 25.8367 25.2967 25.3368C24.7126 24.4585 24.3644 23.4113 23.9954 22.431C23.7178 21.695 23.4468 20.957 23.1683 20.2214C22.9101 19.5404 22.6785 18.8371 22.319 18.2011C21.2493 16.3097 19.2735 15.2341 17.2636 14.6043C15.3285 13.9977 13.3162 13.7781 11.3233 13.4518C10.4091 13.3019 9.42565 13.1393 8.67625 12.5545C8.37094 12.317 8.13243 12.0042 7.98405 11.6467C7.69709 10.9554 7.81974 9.83559 8.15379 9.16748C7.23715 9.3085 5.9409 12.0885 5.54488 13.0456C4.51647 15.5623 5.05927 16.187 6.76342 18.0555C7.56872 18.9433 8.80936 19.427 9.90219 19.8472C11.2077 20.3495 12.5507 20.7398 13.8766 21.1828C15.1224 21.5987 16.084 22.4196 16.8799 23.4516C17.3538 24.0547 17.7601 24.708 18.0916 25.3999C17.0088 26.0302 16.4368 26.7316 16.013 27.897C15.5892 29.0625 15.9498 30.1261 16.1189 30.5458C16.2663 30.912 16.4867 31.286 16.7638 31.5662C17.4568 32.2724 18.3825 32.732 19.3033 33.0621C21.6245 33.8944 24.2943 34.0106 26.6766 33.3756C27.975 33.0303 29.2616 32.4356 30.2744 31.5392C31.029 30.8715 31.6045 29.9993 31.6955 28.9782C31.7599 28.2028 31.5491 27.4316 31.1943 26.753Z" fill="#A54136"/>
</g>
<defs>
<clipPath id="clip0_1038_2970">
<rect width="35" height="35" fill="white" transform="translate(0 0.5)"/>
</clipPath>
</defs>
</svg>
