<svg width="72" height="28" viewBox="0 0 72 28" fill="none" xmlns="http://www.w3.org/2000/svg">
<rect x="0.25" y="0.25" width="27.5" height="27.5" rx="5.75" stroke="#6F614C" strokeWidth="0.5"/>
<rect x="44.25" y="0.25" width="27.5" height="27.5" rx="5.75" stroke="#6F614C" strokeWidth="0.5"/>
<path opacity="0.5" d="M0 22H28C28 25.3137 25.3137 28 22 28H6C2.68629 28 0 25.3137 0 22Z" fill="#6F614C"/>
<path d="M15.7043 19.5H13.6243V10.348L11.3043 12.364V10.124L13.6243 8.108H15.7043V19.5Z" fill="#6F614C"/>
<path d="M61.5283 19.5H54.6003V17.628L58.8563 12.684C59.2509 12.2253 59.4483 11.7667 59.4483 11.308C59.4483 10.8813 59.3256 10.54 59.0803 10.284C58.8456 10.0173 58.5096 9.884 58.0723 9.884C57.1443 9.884 56.6803 10.3693 56.6803 11.34H54.6003C54.6003 10.3267 54.9363 9.51067 55.6083 8.892C56.2483 8.30533 57.0696 8.012 58.0723 8.012C59.0963 8.012 59.9283 8.31067 60.5683 8.908C61.2083 9.50533 61.5283 10.3107 61.5283 11.324C61.5283 11.836 61.4216 12.2947 61.2083 12.7C61.0589 13.0093 60.7603 13.42 60.3123 13.932L57.1283 17.628H61.5283V19.5Z" fill="#6F614C"/>
</svg>
