<svg width="13" height="13" viewBox="0 0 13 13" fill="none" xmlns="http://www.w3.org/2000/svg">
<path id="Vector" d="M5.12835 6.3L0.252876 1.42411C0.101991 1.26789 0.0185015 1.05866 0.0203887 0.841476C0.022276 0.624294 0.109389 0.416542 0.262966 0.262966C0.416542 0.109389 0.624295 0.0222757 0.841476 0.0203884C1.05866 0.0185012 1.26789 0.101991 1.42412 0.252876L6.3 5.12876L11.1759 0.252876C11.2523 0.173763 11.3437 0.11066 11.4448 0.0672486C11.5458 0.0238374 11.6545 0.000987007 11.7645 3.1275e-05C11.8745 -0.000924457 11.9835 0.0200334 12.0853 0.0616819C12.1871 0.10333 12.2796 0.164836 12.3574 0.242609C12.4352 0.320381 12.4967 0.412864 12.5383 0.514661C12.58 0.616458 12.6009 0.725531 12.6 0.835514C12.599 0.945497 12.5762 1.05419 12.5328 1.15525C12.4893 1.25631 12.4262 1.34771 12.3471 1.42411L7.47124 6.3L12.3471 11.1759C12.4262 11.2523 12.4893 11.3437 12.5328 11.4448C12.5762 11.5458 12.599 11.6545 12.6 11.7645C12.6009 11.8745 12.58 11.9835 12.5383 12.0853C12.4967 12.1871 12.4352 12.2796 12.3574 12.3574C12.2796 12.4352 12.1871 12.4967 12.0853 12.5383C11.9835 12.58 11.8745 12.6009 11.7645 12.6C11.6545 12.599 11.5458 12.5762 11.4448 12.5328C11.3437 12.4893 11.2523 12.4262 11.1759 12.3471L6.3 7.47165L1.42412 12.3471C1.34771 12.4262 1.25631 12.4893 1.15525 12.5328C1.05419 12.5762 0.945498 12.599 0.835514 12.6C0.725531 12.6009 0.616459 12.58 0.514661 12.5383C0.412864 12.4967 0.320381 12.4352 0.242608 12.3574C0.164835 12.2796 0.10333 12.1871 0.0616819 12.0853C0.0200334 11.9835 -0.000924481 11.8745 3.12766e-05 11.7645C0.000987035 11.6545 0.0238373 11.5458 0.0672486 11.4448C0.11066 11.3437 0.173763 11.2523 0.252876 11.1759L5.12835 6.3Z" fill="#6F614C"/>
</svg>
