<svg width="21" height="25" viewBox="0 0 21 25" fill="none" xmlns="http://www.w3.org/2000/svg">
<g id="&#60;Group&#62;">
<g id="&#60;Group&#62;_2">
<path id="&#60;Path&#62;" d="M17.5832 13.281C17.5955 12.3391 17.8458 11.4156 18.3107 10.5963C18.7757 9.77705 19.4403 9.08868 20.2427 8.5952C19.7329 7.86705 19.0604 7.26775 18.2786 6.84489C17.4967 6.42203 16.6271 6.18724 15.7387 6.15917C13.8422 5.96049 12.0045 7.29365 11.0382 7.29365C10.0538 7.29365 8.56601 6.17836 6.96532 6.21222C5.92937 6.24566 4.91976 6.54689 4.03486 7.08657C3.14997 7.62626 2.41997 8.38598 1.91602 9.2917C-0.267159 13.0711 1.36176 18.6261 3.45237 21.6818C4.4988 23.1776 5.72133 24.8482 7.32203 24.7895C8.88773 24.7241 9.47247 23.7905 11.3633 23.7905C13.2349 23.7905 13.7835 24.7895 15.4158 24.7523C17.0967 24.7241 18.1544 23.2487 19.1636 21.7383C19.9159 20.6725 20.495 19.4945 20.8794 18.2479C19.903 17.8351 19.0697 17.144 18.4835 16.2607C17.8973 15.3774 17.5842 14.3411 17.5832 13.281Z" fill="#6F614C"/>
<path id="&#60;Path&#62;_2" d="M14.499 4.14864C15.4151 3.0492 15.8666 1.63594 15.7576 0.208984C14.3578 0.355932 13.0648 1.02502 12.1363 2.08286C11.6825 2.59926 11.3348 3.20003 11.1133 3.85083C10.8917 4.50163 10.8005 5.18971 10.8449 5.87576C11.545 5.88298 12.2375 5.7313 12.8704 5.43214C13.5034 5.13298 14.0602 4.69413 14.499 4.14864Z" fill="#6F614C"/>
</g>
</g>
</svg>
