<svg width="21" height="23" viewBox="0 0 21 23" fill="none" xmlns="http://www.w3.org/2000/svg">
<g id="Group">
<path id="Vector" d="M20.8792 11.745C20.8792 11.021 20.8205 10.2931 20.6953 9.58093H10.6499V13.6821H16.4024C16.1637 15.0047 15.3967 16.1748 14.2736 16.9183V19.5794H17.7055C19.7209 17.7245 20.8792 14.9852 20.8792 11.745Z" fill="#6F614C"/>
<path id="Vector_2" d="M10.6499 22.1504C13.5223 22.1504 15.9446 21.2073 17.7095 19.5793L14.2775 16.9183C13.3227 17.5679 12.09 17.9358 10.6538 17.9358C7.8754 17.9358 5.5196 16.0613 4.67433 13.5411H1.13281V16.2843C2.94075 19.8807 6.62315 22.1504 10.6499 22.1504Z" fill="#6F614C"/>
<path id="Vector_3" d="M4.6705 13.5412C4.22439 12.2185 4.22439 10.7862 4.6705 9.46355V6.72034H1.13289C-0.377632 9.72965 -0.377632 13.2751 1.13289 16.2844L4.6705 13.5412Z" fill="#6F614C"/>
<path id="Vector_4" d="M10.6499 5.06499C12.1683 5.04151 13.6357 5.61285 14.7354 6.66161L17.776 3.62099C15.8507 1.81306 13.2953 0.819082 10.6499 0.850388C6.62315 0.850388 2.94075 3.12009 1.13281 6.72031L4.67042 9.46352C5.51177 6.93945 7.87148 5.06499 10.6499 5.06499Z" fill="#6F614C"/>
</g>
</svg>
