<svg width="33" height="36" viewBox="0 0 33 36" fill="none" xmlns="http://www.w3.org/2000/svg">
<path d="M22.5925 5.94667C23.3481 7.6021 24.0671 8.52948 24.7641 9.0743C25.369 9.5472 25.9349 9.70455 26.3242 9.81279C26.3869 9.83023 26.445 9.8464 26.498 9.8624C26.6986 9.92299 26.9114 10.1272 27.0339 10.438C27.1607 10.7599 27.1218 11.0133 27.0566 11.1155C26.8887 11.3784 26.8143 11.6873 26.7631 11.9254C26.7465 12.0027 26.7318 12.0757 26.7175 12.1463C26.6816 12.3237 26.6489 12.4855 26.598 12.6601C26.4704 13.0982 26.2556 13.5079 25.6844 13.8226C25.5186 13.914 25.3577 13.999 25.2016 14.0814C24.7105 14.3407 24.2677 14.5746 23.8739 14.9006C23.3246 15.3554 22.8661 15.9779 22.2874 17.0629C21.9551 17.6859 21.7256 18.6165 21.568 19.6308C21.4077 20.6629 21.3129 21.8457 21.2795 23.0148C21.2462 24.1841 21.2741 25.3516 21.3628 26.354C21.4497 27.3359 21.5998 28.2242 21.8411 28.7937C21.9982 29.1645 21.9749 29.5207 21.786 29.8914C21.5865 30.2831 21.1945 30.6985 20.6058 31.1007C19.4299 31.9038 17.6224 32.5492 15.6325 32.838C13.6465 33.1262 11.5453 33.0495 9.78917 32.4712C8.04199 31.8959 6.6776 30.8421 6.03728 29.1866C3.22917 21.9266 4.15874 14.3842 7.65252 9.64263C9.40906 7.25877 12.5295 4.73335 15.5527 3.64424C17.061 3.10087 18.4854 2.93633 19.6826 3.26172C20.8514 3.57938 21.8791 4.38355 22.5925 5.94667Z" fill="#FBEBD1" stroke="#A54136" strokeWidth="1.20732"/>
<path d="M19.794 1.75153C19.4298 1.32042 18.822 1.18621 18.281 1.20138C17.5629 1.2213 16.8703 1.51155 16.3213 1.96874C15.5255 2.66353 15.0807 3.69742 15.3829 4.74601C15.6335 5.61628 16.3531 6.26981 17.2777 6.27266C18.2611 6.27598 19.1725 5.7818 19.6742 4.93287C19.9542 4.46145 20.1005 3.91842 20.1398 3.37397C20.1792 2.82952 20.1683 2.19449 19.794 1.75153Z" fill="#A54136"/>
<path d="M31.1942 26.7532C30.9512 26.288 30.5969 25.6705 30.0966 25.4462C29.6518 25.2465 29.1289 25.3428 28.6755 25.459C28.3264 25.5486 27.9839 25.6638 27.6433 25.7819C27.3406 25.8868 27.0389 26.0229 26.7272 26.0959C26.0929 26.2443 25.6287 25.837 25.2966 25.3371C24.7125 24.4587 24.3643 23.4116 23.9953 22.4313C23.7177 21.6952 23.4468 20.9573 23.1682 20.2217C22.9101 19.5407 22.6784 18.8373 22.3189 18.2013C21.2492 16.31 19.2734 15.2344 17.2635 14.6045C15.3284 13.998 13.3161 13.7784 11.3232 13.4521C10.409 13.3022 9.42557 13.1395 8.67617 12.5548C8.37086 12.3173 8.13236 12.0045 7.98398 11.647C7.69701 10.9557 7.81966 9.83585 8.15371 9.16774C7.23707 9.30877 5.94082 12.0888 5.54481 13.0459C4.51639 15.5626 5.05919 16.1873 6.76335 18.0557C7.56865 18.9436 8.80928 19.4273 9.90212 19.8475C11.2076 20.3497 12.5506 20.7401 13.8765 21.183C15.1223 21.5989 16.084 22.4199 16.8798 23.4519C17.3537 24.0549 17.7601 24.7083 18.0915 25.4002C17.0088 26.0305 16.4367 26.7318 16.0129 27.8973C15.5891 29.0628 15.9498 30.1264 16.1189 30.5461C16.2662 30.9122 16.4866 31.2862 16.7637 31.5665C17.4568 32.2727 18.3824 32.7322 19.3033 33.0623C21.6244 33.8947 24.2942 34.0109 26.6765 33.3758C27.9749 33.0306 29.2615 32.4358 30.2743 31.5395C31.0289 30.8717 31.6044 29.9995 31.6954 28.9785C31.7598 28.203 31.549 27.4319 31.1942 26.7532Z" fill="#A54136"/>
</svg>
