<svg width="80" height="104" viewBox="0 0 80 104" fill="none" xmlns="http://www.w3.org/2000/svg">
<rect opacity="0.4" x="5" y="49" width="70" height="55" rx="4" fill="#A54136"/>
<rect width="80" height="100" rx="4" fill="#A54136"/>
<path d="M31.846 30H28.649V23.146H23.106V30H19.909V13.624H23.106V20.317H28.649V13.624H31.846V30ZM48.9021 30H45.1761L40.9671 22.548L38.8511 25.078V30H35.6541V13.624H38.8511V20.754L44.6241 13.624H48.5111L43.0831 20.133L48.9021 30ZM61.53 25.17C61.53 26.7187 60.955 27.9377 59.805 28.827C58.6703 29.701 57.2213 30.138 55.458 30.138C52.8973 30.138 50.904 29.4173 49.478 27.976L51.548 25.906C52.468 26.826 53.7867 27.286 55.504 27.286C57.436 27.286 58.402 26.6113 58.402 25.262C58.402 24.6487 58.241 24.1963 57.919 23.905C57.597 23.5983 57.1063 23.399 56.447 23.307L54.469 23.031C51.571 22.6323 50.122 21.1067 50.122 18.454C50.122 16.9667 50.6357 15.7707 51.663 14.866C52.6903 13.946 54.078 13.486 55.826 13.486C58.034 13.486 59.7973 14.1223 61.116 15.395L59.092 17.396C58.31 16.6447 57.1907 16.269 55.734 16.269C54.9213 16.269 54.2927 16.4683 53.848 16.867C53.4187 17.2503 53.204 17.741 53.204 18.339C53.204 18.8143 53.3727 19.213 53.71 19.535C54.0627 19.857 54.561 20.064 55.205 20.156L57.137 20.432C58.5323 20.6313 59.575 21.053 60.265 21.697C61.1083 22.4943 61.53 23.652 61.53 25.17Z" fill="white"/>
<path opacity="0.8" d="M34.368 42.32C34.368 43.796 34.062 44.786 33.27 45.632C32.37 46.604 31.164 47.108 29.85 47.108C28.59 47.108 27.438 46.64 26.574 45.776C25.368 44.57 25.368 43.31 25.368 40.592C25.368 37.874 25.368 36.614 26.574 35.408C27.438 34.544 28.572 34.076 29.85 34.076C32.298 34.076 33.954 35.66 34.332 37.91H32.964C32.604 36.29 31.452 35.3 29.85 35.3C29.004 35.3 28.194 35.642 27.636 36.218C26.826 37.046 26.736 37.91 26.736 40.592C26.736 43.274 26.826 44.156 27.636 44.984C28.194 45.56 29.004 45.884 29.85 45.884C30.786 45.884 31.686 45.506 32.28 44.786C32.802 44.156 33 43.454 33 42.464V41.492H29.85V40.286H34.368V42.32ZM46.291 37.946C46.291 40.25 44.671 41.726 42.331 41.726H38.929V47H37.561V34.184H42.331C44.671 34.184 46.291 35.642 46.291 37.946ZM44.923 37.946C44.923 36.254 43.807 35.408 42.205 35.408H38.929V40.502H42.205C43.807 40.502 44.923 39.638 44.923 37.946ZM56.3689 35.408H52.6609V47H51.2929V35.408H47.5849V34.184H56.3689V35.408Z" fill="white"/>
<circle cx="5.6" cy="94.8" r="1.6" fill="#FCECD2"/>
<line x1="5.2" y1="94" x2="5.2" y2="86" stroke="#FCECD2" stroke-width="0.8"/>
<line x1="5.6" y1="95.2" x2="13.6" y2="95.2" stroke="#FCECD2" stroke-width="0.8"/>
<circle cx="1.6" cy="1.6" r="1.6" transform="matrix(1 0 0 -1 4 7.19991)" fill="#FCECD2"/>
<line y1="-0.4" x2="8" y2="-0.4" transform="matrix(-4.37113e-08 1 1 4.37113e-08 5.6 6.3999)" stroke="#FCECD2" stroke-width="0.8"/>
<line y1="-0.4" x2="8" y2="-0.4" transform="matrix(1 0 0 -1 5.6 4.7999)" stroke="#FCECD2" stroke-width="0.8"/>
<circle cx="1.6" cy="1.6" r="1.6" transform="matrix(-1 0 0 1 75.6 93.2)" fill="#FCECD2"/>
<line y1="-0.4" x2="8" y2="-0.4" transform="matrix(4.37113e-08 -1 -1 -4.37113e-08 74 94)" stroke="#FCECD2" stroke-width="0.8"/>
<line y1="-0.4" x2="8" y2="-0.4" transform="matrix(-1 0 0 1 74 95.6)" stroke="#FCECD2" stroke-width="0.8"/>
<circle cx="74" cy="5.59991" r="1.6" transform="rotate(180 74 5.59991)" fill="#FCECD2"/>
<line x1="74.4" y1="6.3999" x2="74.4" y2="14.3999" stroke="#FCECD2" stroke-width="0.8"/>
<line x1="74" y1="5.1999" x2="66" y2="5.1999" stroke="#FCECD2" stroke-width="0.8"/>
</svg>
