<svg width="24" height="24" viewBox="0 0 24 24" fill="none" xmlns="http://www.w3.org/2000/svg">
<g clip-path="url(#clip0_963_18154)">
<path d="M2.83203 7.446C2.68483 7.22521 2.45596 7.07193 2.19575 7.01989C1.93554 6.96785 1.66532 7.02131 1.44453 7.1685C1.22373 7.3157 1.07046 7.54457 1.01842 7.80478C0.966375 8.06499 1.01983 8.33521 1.16703 8.556L1.17303 8.562L1.37853 8.8515C1.85541 9.48643 2.37247 10.0902 2.92653 10.659L1.29153 12.294C1.195 12.3861 1.11788 12.4966 1.0647 12.619C1.01152 12.7414 0.983357 12.8732 0.981873 13.0066C0.980389 13.1401 1.00561 13.2724 1.05606 13.396C1.1065 13.5195 1.18115 13.6317 1.2756 13.726C1.37006 13.8202 1.48241 13.8946 1.60606 13.9448C1.7297 13.995 1.86213 14.0199 1.99556 14.0182C2.12899 14.0164 2.26071 13.988 2.38298 13.9345C2.50525 13.8811 2.6156 13.8037 2.70753 13.707L4.40253 12.012C5.35854 12.8038 6.41213 13.4697 7.53753 13.9935L6.64203 15.486C6.50911 15.7134 6.47123 15.9841 6.53661 16.2392C6.60199 16.4944 6.76536 16.7135 6.99127 16.8489C7.21717 16.9844 7.48738 17.0253 7.74326 16.9628C7.99914 16.9003 8.22004 16.7394 8.35803 16.515L9.46053 14.676C10.2901 14.89 11.1433 14.9988 12 15C12.8925 15 13.74 14.88 14.5395 14.6775L15.642 16.515C15.78 16.7394 16.0009 16.9003 16.2568 16.9628C16.5127 17.0253 16.7829 16.9844 17.0088 16.8489C17.2347 16.7135 17.3981 16.4944 17.4634 16.2392C17.5288 15.9841 17.4909 15.7134 17.358 15.486L16.4625 13.9935C17.5878 13.4702 18.6414 12.8048 19.5975 12.0135L21.2925 13.7085C21.4803 13.8961 21.7349 14.0014 22.0003 14.0012C22.2657 14.0011 22.5202 13.8955 22.7078 13.7078C22.8953 13.52 23.0006 13.2654 23.0005 13C23.0004 12.7346 22.8948 12.4801 22.707 12.2925L21.072 10.659C21.6266 10.0902 22.1441 9.48644 22.6215 8.8515L22.824 8.5665L22.8315 8.5545C22.9044 8.44518 22.955 8.32257 22.9805 8.19367C23.006 8.06478 23.0059 7.93212 22.9801 7.80328C22.9544 7.67444 22.9035 7.55194 22.8304 7.44276C22.7572 7.33359 22.6634 7.23989 22.554 7.167C22.4447 7.09412 22.3221 7.04348 22.1932 7.01798C22.0643 6.99249 21.9316 6.99262 21.8028 7.01839C21.674 7.04416 21.5515 7.09505 21.4423 7.16817C21.3331 7.24128 21.2394 7.33518 21.1665 7.4445C20.9608 7.73819 20.7426 8.02295 20.5125 8.298C20.07 8.8275 19.422 9.5355 18.5985 10.2405C16.9365 11.6655 14.6625 13.0005 12 13.0005C9.33753 13.0005 7.06203 11.6655 5.40003 10.2405C4.50686 9.47055 3.69875 8.60712 2.98953 7.665C2.93675 7.59306 2.88475 7.52056 2.83353 7.4475L2.83203 7.446Z" fill="#A54136"/>
</g>
<defs>
<clipPath id="clip0_963_18154">
<rect width="24" height="24" fill="white"/>
</clipPath>
</defs>
</svg>
