<svg xmlns="http://www.w3.org/2000/svg" width="18" height="18" fill="none" viewBox="0 0 18 18">
  <path fill="#6F614C" d="M9 13.012a1.222 1.222 0 1 0 0-2.444 1.222 1.222 0 0 0 0 2.444Z"/>
  <path fill="#6F614C" d="M13.71 7.147V6.21c0-2.025-.488-4.71-4.71-4.71-4.223 0-4.71 2.685-4.71 4.71v.938c-2.1.262-2.79 1.327-2.79 3.944v1.396c0 3.075.938 4.012 4.013 4.012h6.975c3.075 0 4.012-.938 4.012-4.012v-1.396c0-2.617-.69-3.682-2.79-3.945ZM9 14.056a2.268 2.268 0 0 1-2.265-2.265A2.268 2.268 0 0 1 9 9.525a2.273 2.273 0 0 1 2.265 2.265A2.263 2.263 0 0 1 9 14.055ZM5.513 7.08H5.34v-.87c0-2.197.623-3.66 3.66-3.66s3.66 1.463 3.66 3.66v.878H5.513V7.08Z"/>
</svg>
