<svg width="149" height="36" viewBox="0 0 149 36" fill="none" xmlns="http://www.w3.org/2000/svg">
<g clip-path="url(#clip0_265_51333)">
<path d="M22.5925 5.94635C23.3481 7.60178 24.0671 8.52916 24.7641 9.07397C25.369 9.54688 25.9349 9.70423 26.3242 9.81247C26.3869 9.82991 26.445 9.84608 26.498 9.86208C26.6986 9.92267 26.9114 10.1268 27.0339 10.4377C27.1607 10.7596 27.1218 11.013 27.0566 11.1152C26.8887 11.3781 26.8143 11.6869 26.7631 11.9251C26.7465 12.0024 26.7318 12.0754 26.7175 12.146C26.6816 12.3234 26.6489 12.4852 26.598 12.6598C26.4704 13.0978 26.2556 13.5076 25.6844 13.8223C25.5186 13.9137 25.3577 13.9986 25.2016 14.0811C24.7105 14.3404 24.2677 14.5743 23.8739 14.9003C23.3246 15.355 22.8661 15.9776 22.2874 17.0626C21.9551 17.6855 21.7256 18.6162 21.568 19.6305C21.4077 20.6626 21.3129 21.8454 21.2795 23.0144C21.2462 24.1838 21.2741 25.3512 21.3628 26.3537C21.4497 27.3356 21.5998 28.2239 21.8411 28.7934C21.9982 29.1642 21.9749 29.5204 21.786 29.891C21.5865 30.2828 21.1945 30.6982 20.6058 31.1004C19.4299 31.9035 17.6224 32.5489 15.6325 32.8376C13.6465 33.1259 11.5453 33.0491 9.78917 32.4709C8.04199 31.8955 6.6776 30.8418 6.03728 29.1863C3.22917 21.9263 4.15874 14.3838 7.65252 9.64231C9.40906 7.25844 12.5295 4.73303 15.5527 3.64392C17.061 3.10055 18.4854 2.93601 19.6826 3.2614C20.8514 3.57906 21.8791 4.38323 22.5925 5.94635Z" fill="#FBEBD1" stroke="#A54136" stroke-width="1.20732"/>
<path d="M19.794 1.75148C19.4297 1.32037 18.822 1.18616 18.281 1.20133C17.5629 1.22125 16.8703 1.5115 16.3213 1.96869C15.5255 2.66348 15.0806 3.69737 15.3829 4.74596C15.6335 5.61623 16.353 6.26976 17.2777 6.27261C18.2611 6.27593 19.1725 5.78175 19.6742 4.93282C19.9541 4.4614 20.1005 3.91838 20.1398 3.37392C20.1791 2.82947 20.1682 2.19444 19.794 1.75148Z" fill="#A54136"/>
<path d="M31.1942 26.753C30.9512 26.2877 30.5968 25.6702 30.0966 25.4459C29.6518 25.2462 29.1288 25.3425 28.6755 25.4587C28.3264 25.5483 27.9839 25.6636 27.6433 25.7817C27.3406 25.8865 27.0388 26.0226 26.7271 26.0956C26.0928 26.2441 25.6286 25.8367 25.2965 25.3368C24.7125 24.4585 24.3643 23.4113 23.9953 22.431C23.7177 21.695 23.4467 20.957 23.1682 20.2214C22.91 19.5404 22.6784 18.8371 22.3188 18.2011C21.2492 16.3097 19.2734 15.2341 17.2634 14.6043C15.3284 13.9977 13.3161 13.7781 11.3232 13.4518C10.4089 13.3019 9.42553 13.1393 8.67612 12.5545C8.37082 12.317 8.13231 12.0042 7.98393 11.6467C7.69696 10.9554 7.81962 9.83559 8.15367 9.16748C7.23703 9.3085 5.94078 12.0885 5.54476 13.0456C4.51634 15.5623 5.05914 16.187 6.7633 18.0555C7.5686 18.9433 8.80923 19.427 9.90207 19.8472C11.2076 20.3495 12.5506 20.7398 13.8765 21.1828C15.1223 21.5987 16.0839 22.4196 16.8797 23.4516C17.3537 24.0547 17.76 24.708 18.0915 25.3999C17.0087 26.0302 16.4367 26.7316 16.0129 27.897C15.5891 29.0625 15.9497 30.1261 16.1188 30.5458C16.2661 30.912 16.4866 31.286 16.7637 31.5662C17.4567 32.2724 18.3823 32.732 19.3032 33.0621C21.6244 33.8944 24.2942 34.0106 26.6764 33.3756C27.9749 33.0303 29.2615 32.4356 30.2742 31.5392C31.0289 30.8715 31.6044 29.9993 31.6954 28.9782C31.7598 28.2028 31.549 27.4316 31.1942 26.753Z" fill="#A54136"/>
</g>
<path d="M52.0548 16.7651H50.0244V7.81634L46.9412 14.3399H45.4372L42.2788 7.81634V16.7651H40.2484V3.37954H42.2788L46.1892 11.7079L50.0244 3.37954H52.0548V16.7651ZM62.3286 16.7651H60.4486V15.9003C59.753 16.5959 59.095 16.8779 57.9106 16.8779C56.7262 16.8779 55.9366 16.5959 55.3538 16.0131C54.865 15.5055 54.6018 14.7723 54.6018 13.9639C54.6018 12.3659 55.711 11.2191 57.8918 11.2191H60.411V10.5423C60.411 9.33914 59.8094 8.75634 58.3242 8.75634C57.2714 8.75634 56.7638 9.00074 56.2374 9.67754L54.9778 8.49314C55.8802 7.44034 56.8202 7.12074 58.3994 7.12074C61.0126 7.12074 62.3286 8.22994 62.3286 10.3919V16.7651ZM60.411 13.3247V12.5539H58.1738C57.0458 12.5539 56.463 13.0615 56.463 13.9263C56.463 14.7911 57.0082 15.2799 58.2114 15.2799C58.9446 15.2799 59.4898 15.2235 59.9974 14.7347C60.2794 14.4527 60.411 14.0015 60.411 13.3247ZM73.0121 16.7651H71.0945V10.9559C71.0945 9.47074 70.2485 8.83154 69.1769 8.83154C68.1053 8.83154 67.2029 9.48954 67.2029 10.9559V16.7651H65.2853V7.23354H67.1653V8.19234C67.8233 7.47794 68.7445 7.12074 69.7033 7.12074C70.6809 7.12074 71.4893 7.44034 72.0533 7.98554C72.7865 8.69994 73.0121 9.60234 73.0121 10.6739V16.7651ZM83.3213 16.7651H81.4413V15.7499C80.7269 16.6147 79.9561 16.8779 78.9221 16.8779C77.9633 16.8779 77.1173 16.5583 76.5909 16.0319C75.6321 15.0731 75.5193 13.4375 75.5193 11.9899C75.5193 10.5423 75.6321 8.92554 76.5909 7.96674C77.1173 7.44034 77.9445 7.12074 78.9033 7.12074C79.9185 7.12074 80.7081 7.36514 81.4037 8.19234V3.37954H83.3213V16.7651ZM81.4037 11.9899C81.4037 10.2979 81.1593 8.83154 79.4297 8.83154C77.7001 8.83154 77.4369 10.2979 77.4369 11.9899C77.4369 13.6819 77.7001 15.1671 79.4297 15.1671C81.1593 15.1671 81.4037 13.6819 81.4037 11.9899ZM93.3743 16.7651H91.4943V15.9003C90.7987 16.5959 90.1407 16.8779 88.9563 16.8779C87.7719 16.8779 86.9823 16.5959 86.3995 16.0131C85.9107 15.5055 85.6475 14.7723 85.6475 13.9639C85.6475 12.3659 86.7567 11.2191 88.9375 11.2191H91.4567V10.5423C91.4567 9.33914 90.8551 8.75634 89.3699 8.75634C88.3171 8.75634 87.8095 9.00074 87.2831 9.67754L86.0235 8.49314C86.9259 7.44034 87.8659 7.12074 89.4451 7.12074C92.0583 7.12074 93.3743 8.22994 93.3743 10.3919V16.7651ZM91.4567 13.3247V12.5539H89.2195C88.0915 12.5539 87.5087 13.0615 87.5087 13.9263C87.5087 14.7911 88.0539 15.2799 89.2571 15.2799C89.9903 15.2799 90.5355 15.2235 91.0431 14.7347C91.3251 14.4527 91.4567 14.0015 91.4567 13.3247ZM103.024 8.02314L101.576 9.47074C101.144 9.03834 100.805 8.83154 100.147 8.83154C99.1134 8.83154 98.2486 9.65874 98.2486 10.9747V16.7651H96.331V7.23354H98.211V8.26754C98.6998 7.59074 99.6774 7.12074 100.749 7.12074C101.67 7.12074 102.366 7.36514 103.024 8.02314ZM106.567 5.35354H104.536V3.32314H106.567V5.35354ZM106.51 16.7651H104.593V7.23354H106.51V16.7651ZM117.277 16.7651H115.359V10.9559C115.359 9.47074 114.513 8.83154 113.441 8.83154C112.37 8.83154 111.467 9.48954 111.467 10.9559V16.7651H109.55V7.23354H111.43V8.19234C112.088 7.47794 113.009 7.12074 113.968 7.12074C114.945 7.12074 115.754 7.44034 116.318 7.98554C117.051 8.69994 117.277 9.60234 117.277 10.6739V16.7651ZM127.511 16.7087C127.511 19.0399 125.969 20.7319 123.431 20.7319C121.983 20.7319 121.062 20.3935 120.066 19.4723L121.288 18.2503C121.889 18.8143 122.416 19.0963 123.356 19.0963C124.973 19.0963 125.593 17.9495 125.593 16.6711V15.4491C124.897 16.2763 124.108 16.5395 123.13 16.5395C122.171 16.5395 121.382 16.2199 120.855 15.6935C119.934 14.7723 119.784 13.4375 119.784 11.8207C119.784 10.2039 119.934 8.86914 120.855 7.94794C121.382 7.42154 122.19 7.12074 123.149 7.12074C124.164 7.12074 124.935 7.38394 125.649 8.24874V7.23354H127.511V16.7087ZM125.593 11.8207C125.593 10.3167 125.386 8.83154 123.657 8.83154C121.927 8.83154 121.701 10.3167 121.701 11.8207C121.701 13.3247 121.927 14.8099 123.657 14.8099C125.386 14.8099 125.593 13.3247 125.593 11.8207ZM138.054 11.9899C138.054 13.6067 137.828 14.8099 136.926 15.7499C136.306 16.3891 135.366 16.8779 134.068 16.8779C132.771 16.8779 131.85 16.3891 131.23 15.7499C130.327 14.8099 130.102 13.6067 130.102 11.9899C130.102 10.3919 130.327 9.18874 131.23 8.24874C131.85 7.60954 132.771 7.12074 134.068 7.12074C135.366 7.12074 136.306 7.60954 136.926 8.24874C137.828 9.18874 138.054 10.3919 138.054 11.9899ZM136.136 11.9899C136.136 10.9559 136.061 9.95954 135.478 9.37674C135.121 9.01954 134.632 8.83154 134.068 8.83154C133.504 8.83154 133.034 9.01954 132.677 9.37674C132.094 9.95954 132.019 10.9559 132.019 11.9899C132.019 13.0239 132.094 14.0203 132.677 14.6031C133.034 14.9603 133.504 15.1671 134.068 15.1671C134.632 15.1671 135.121 14.9603 135.478 14.6031C136.061 14.0203 136.136 13.0239 136.136 11.9899Z" fill="#A54136"/>
<path opacity="0.6" d="M41.9215 24.2917H43.0405L45.5221 30.7349H44.4663L43.8617 29.0744H41.0913L40.4867 30.7349H39.4399L41.9215 24.2917ZM41.3891 28.2623H43.5639L42.4991 25.3475H42.463L41.3891 28.2623ZM50.8087 25.9431C52.0179 25.9431 52.6857 26.4304 52.794 27.414H51.8645C51.7923 27.1614 51.684 26.9899 51.5306 26.8906C51.3682 26.7824 51.1155 26.7282 50.7907 26.7282C50.5019 26.7282 50.2853 26.7643 50.1409 26.8545C49.9695 26.9448 49.8883 27.0892 49.8883 27.2696C49.8883 27.4321 50.0146 27.5674 50.2673 27.6848C50.4297 27.7569 50.7365 27.8472 51.2058 27.9645C51.7382 28.0908 52.1352 28.2442 52.3879 28.4067C52.7579 28.6413 52.9474 28.9662 52.9474 29.3813C52.9474 30.3649 52.2525 30.8612 50.8719 30.8612C49.5905 30.8612 48.9046 30.3107 48.7963 29.2279H49.7348C49.789 29.5437 49.9063 29.7693 50.0687 29.8956C50.2312 30.0129 50.4838 30.0761 50.8448 30.0761C51.5848 30.0761 51.9638 29.8595 51.9638 29.4444C51.9638 29.2188 51.8194 29.0384 51.5487 28.912C51.4043 28.8398 51.0884 28.7496 50.6102 28.6413C50.0597 28.515 49.6717 28.3796 49.4551 28.2352C49.0941 28.0096 48.9137 27.6938 48.9137 27.2967C48.9137 26.8726 49.0851 26.5387 49.4371 26.3041C49.789 26.0604 50.2492 25.9431 50.8087 25.9431ZM55.9933 25.9431C56.6791 25.9431 57.1754 26.2048 57.4642 26.7282C57.6717 26.4394 57.8973 26.2319 58.132 26.1146C58.3485 25.9973 58.6102 25.9431 58.9261 25.9431C59.4043 25.9431 59.8014 26.0965 60.1172 26.4214C60.4241 26.7372 60.5865 27.1523 60.5865 27.6757V30.7349H59.6299V27.8382C59.6299 27.4592 59.5487 27.1794 59.3863 27.008C59.2239 26.8275 58.9531 26.7463 58.5922 26.7463C58.3215 26.7463 58.1049 26.8455 57.9244 27.044C57.7439 27.2426 57.6537 27.5223 57.6537 27.8652V30.7349H56.6971V27.8472C56.6971 27.1072 56.3723 26.7463 55.7406 26.7463C55.4338 26.7463 55.1811 26.8636 55.0006 27.0982C54.8021 27.3238 54.7119 27.6035 54.7119 27.9284V30.7349H53.7553V26.0695H54.7119V26.5838C55.0909 26.1507 55.524 25.9431 55.9933 25.9431ZM63.7715 25.9431C64.4574 25.9431 64.9627 26.1146 65.2876 26.4575C65.5673 26.7553 65.7117 27.1884 65.7117 27.7569V30.7349H64.8273V30.0761C64.6469 30.3107 64.4213 30.5002 64.1505 30.6356C63.8437 30.78 63.4828 30.8612 63.0677 30.8612C62.5804 30.8612 62.2014 30.7349 61.9306 30.4912C61.6328 30.2476 61.4885 29.9317 61.4885 29.5437C61.4885 29.0203 61.696 28.6142 62.1111 28.3345C62.4901 28.0638 63.0316 27.9284 63.7174 27.9104L64.7642 27.8833V27.6938C64.7642 27.044 64.4122 26.7192 63.7084 26.7192C63.4106 26.7192 63.1669 26.7733 62.9864 26.8816C62.7699 27.008 62.6345 27.1975 62.5804 27.4592L61.6328 27.3779C61.7321 26.8726 61.9848 26.4936 62.3818 26.259C62.7248 26.0424 63.194 25.9431 63.7715 25.9431ZM64.7642 28.5781L63.7806 28.6052C62.9052 28.6232 62.4721 28.9301 62.4721 29.5076C62.4721 29.6881 62.5443 29.8325 62.6977 29.9498C62.8421 30.0671 63.0406 30.1303 63.2842 30.1303C63.6903 30.1303 64.0332 30.0039 64.322 29.7603C64.6108 29.5166 64.7642 29.2098 64.7642 28.8488V28.5781ZM68.9724 25.9431C69.207 25.9431 69.4146 25.9792 69.577 26.0604V27.017C69.3424 26.9448 69.1168 26.9177 68.9002 26.9177C68.6114 26.9177 68.3497 27.035 68.1241 27.2696C67.8805 27.5223 67.7632 27.8562 67.7632 28.2623V30.7349H66.8066V26.0695H67.7632V26.7733C67.8805 26.5207 68.0339 26.3312 68.2144 26.2048C68.431 26.0243 68.6836 25.9431 68.9724 25.9431ZM71.581 24.5624V26.0695H72.6458V26.8636H71.581V29.5708C71.581 29.6971 71.608 29.7873 71.6622 29.8505C71.7163 29.9047 71.7975 29.9408 71.9149 29.9408H72.5285V30.7349H71.7614C71.3644 30.7349 71.0666 30.6266 70.8861 30.419C70.7056 30.2205 70.6244 29.9408 70.6244 29.5708V26.8636H69.7581V26.0695H70.6244V24.9595L71.581 24.5624ZM75.3923 25.9431C76.1503 25.9431 76.7368 26.1958 77.1339 26.7192C77.4949 27.1884 77.6844 27.8382 77.6934 28.6684H74.156C74.1921 29.1196 74.3094 29.4715 74.526 29.7152C74.7425 29.9498 75.0403 30.0761 75.4193 30.0761C75.7532 30.0761 76.0239 29.9949 76.2315 29.8415C76.3939 29.7152 76.5293 29.5076 76.6556 29.2369H77.6122C77.5039 29.67 77.2963 30.04 76.9715 30.3288C76.5654 30.6807 76.051 30.8612 75.4284 30.8612C74.7425 30.8612 74.1921 30.6446 73.795 30.2205C73.3619 29.7693 73.1453 29.1647 73.1453 28.3976C73.1453 27.7028 73.3438 27.1253 73.7589 26.656C74.156 26.1777 74.7064 25.9431 75.3923 25.9431ZM75.4193 26.7282C75.0584 26.7282 74.7786 26.8275 74.5621 27.044C74.3635 27.2516 74.2282 27.5494 74.174 27.9464H76.6917C76.6015 27.1343 76.1773 26.7282 75.4193 26.7282ZM80.6754 25.9431C80.91 25.9431 81.1176 25.9792 81.28 26.0604V27.017C81.0454 26.9448 80.8198 26.9177 80.6032 26.9177C80.3144 26.9177 80.0527 27.035 79.8271 27.2696C79.5835 27.5223 79.4662 27.8562 79.4662 28.2623V30.7349H78.5096V26.0695H79.4662V26.7733C79.5835 26.5207 79.7369 26.3312 79.9174 26.2048C80.134 26.0243 80.3866 25.9431 80.6754 25.9431ZM86.289 24.5624V26.0695H87.3539V26.8636H86.289V29.5708C86.289 29.6971 86.3161 29.7873 86.3702 29.8505C86.4244 29.9047 86.5056 29.9408 86.6229 29.9408H87.2365V30.7349H86.4695C86.0725 30.7349 85.7747 30.6266 85.5942 30.419C85.4137 30.2205 85.3325 29.9408 85.3325 29.5708V26.8636H84.4662V26.0695H85.3325V24.9595L86.289 24.5624ZM90.2718 25.9431C90.9757 25.9431 91.5442 26.1777 91.9683 26.647C92.3834 27.1072 92.6 27.6938 92.6 28.4067C92.6 29.1105 92.3924 29.6971 91.9773 30.1483C91.5442 30.6176 90.9757 30.8612 90.2718 30.8612C89.5679 30.8612 88.9994 30.6176 88.5662 30.1483C88.1511 29.6971 87.9436 29.1105 87.9436 28.4067C87.9436 27.6938 88.1511 27.1072 88.5753 26.647C88.9994 26.1777 89.5679 25.9431 90.2718 25.9431ZM90.2718 26.7282C89.8296 26.7282 89.4867 26.8997 89.243 27.2516C89.0265 27.5494 88.9272 27.9374 88.9272 28.4067C88.9272 28.8759 89.0265 29.2549 89.243 29.5527C89.4867 29.8956 89.8296 30.0761 90.2718 30.0761C90.714 30.0761 91.0569 29.8956 91.3095 29.5527C91.5261 29.2459 91.6344 28.8669 91.6344 28.4067C91.6344 27.9374 91.5261 27.5494 91.3095 27.2516C91.0569 26.8997 90.714 26.7282 90.2718 26.7282ZM96.6219 24.1654H97.5784V30.7349H96.6219V24.1654ZM100.746 25.9431C101.504 25.9431 102.09 26.1958 102.487 26.7192C102.848 27.1884 103.038 27.8382 103.047 28.6684H99.5095C99.5456 29.1196 99.6629 29.4715 99.8795 29.7152C100.096 29.9498 100.394 30.0761 100.773 30.0761C101.107 30.0761 101.378 29.9949 101.585 29.8415C101.747 29.7152 101.883 29.5076 102.009 29.2369H102.966C102.857 29.67 102.65 30.04 102.325 30.3288C101.919 30.6807 101.405 30.8612 100.782 30.8612C100.096 30.8612 99.5456 30.6446 99.1486 30.2205C98.7154 29.7693 98.4989 29.1647 98.4989 28.3976C98.4989 27.7028 98.6974 27.1253 99.1125 26.656C99.5095 26.1777 100.06 25.9431 100.746 25.9431ZM100.773 26.7282C100.412 26.7282 100.132 26.8275 99.9156 27.044C99.7171 27.2516 99.5817 27.5494 99.5276 27.9464H102.045C101.955 27.1343 101.531 26.7282 100.773 26.7282ZM105.966 25.9431C106.652 25.9431 107.157 26.1146 107.482 26.4575C107.762 26.7553 107.906 27.1884 107.906 27.7569V30.7349H107.022V30.0761C106.841 30.3107 106.616 30.5002 106.345 30.6356C106.038 30.78 105.677 30.8612 105.262 30.8612C104.775 30.8612 104.396 30.7349 104.125 30.4912C103.827 30.2476 103.683 29.9317 103.683 29.5437C103.683 29.0203 103.89 28.6142 104.305 28.3345C104.684 28.0638 105.226 27.9284 105.912 27.9104L106.958 27.8833V27.6938C106.958 27.044 106.606 26.7192 105.903 26.7192C105.605 26.7192 105.361 26.7733 105.181 26.8816C104.964 27.008 104.829 27.1975 104.775 27.4592L103.827 27.3779C103.926 26.8726 104.179 26.4936 104.576 26.259C104.919 26.0424 105.388 25.9431 105.966 25.9431ZM106.958 28.5781L105.975 28.6052C105.099 28.6232 104.666 28.9301 104.666 29.5076C104.666 29.6881 104.739 29.8325 104.892 29.9498C105.036 30.0671 105.235 30.1303 105.478 30.1303C105.885 30.1303 106.227 30.0039 106.516 29.7603C106.805 29.5166 106.958 29.2098 106.958 28.8488V28.5781ZM111.167 25.9431C111.401 25.9431 111.609 25.9792 111.771 26.0604V27.017C111.537 26.9448 111.311 26.9177 111.094 26.9177C110.806 26.9177 110.544 27.035 110.318 27.2696C110.075 27.5223 109.957 27.8562 109.957 28.2623V30.7349H109.001V26.0695H109.957V26.7733C110.075 26.5207 110.228 26.3312 110.409 26.2048C110.625 26.0243 110.878 25.9431 111.167 25.9431ZM114.723 25.9431C115.878 25.9431 116.464 26.5748 116.464 27.8562V30.7349H115.508V27.9374C115.508 27.1433 115.138 26.7463 114.416 26.7463C114.145 26.7463 113.902 26.8365 113.703 27.035C113.486 27.2516 113.351 27.5494 113.315 27.9284V30.7349H112.358V26.0695H113.315V26.647C113.495 26.4124 113.703 26.2409 113.938 26.1236C114.172 25.9973 114.434 25.9431 114.723 25.9431ZM120.653 24.2917H121.637V27.008H125.012V24.2917H125.995V30.7349H125.012V27.8472H121.637V30.7349H120.653V24.2917ZM129.519 24.1654C130.267 24.1654 130.854 24.3188 131.278 24.6437C131.729 24.9776 131.982 25.4919 132.045 26.1958H131.071C130.98 25.7807 130.818 25.4739 130.565 25.2934C130.313 25.1039 129.952 25.0136 129.464 25.0136C129.04 25.0136 128.715 25.0768 128.49 25.2032C128.21 25.3475 128.075 25.5822 128.075 25.907C128.075 26.1958 128.228 26.4214 128.553 26.5928C128.697 26.6741 129.067 26.8094 129.672 26.9899C130.538 27.2606 131.107 27.4682 131.359 27.6216C131.91 27.9555 132.19 28.4157 132.19 29.0113C132.19 29.5888 131.964 30.04 131.513 30.3739C131.062 30.6988 130.43 30.8612 129.618 30.8612C128.833 30.8612 128.219 30.6988 127.777 30.392C127.244 30.0129 126.956 29.4174 126.902 28.6052H127.876C127.948 29.1105 128.129 29.4805 128.418 29.6971C128.679 29.8956 129.076 29.9949 129.618 29.9949C130.105 29.9949 130.493 29.9047 130.782 29.7422C131.071 29.5798 131.215 29.3542 131.215 29.0654C131.215 28.7045 131.007 28.4247 130.601 28.2172C130.457 28.145 130.033 28.0006 129.32 27.784C128.526 27.5313 128.039 27.3599 127.84 27.2516C127.344 26.9538 127.1 26.5207 127.1 25.9612C127.1 25.3927 127.335 24.9505 127.813 24.6256C128.264 24.3188 128.833 24.1654 129.519 24.1654ZM137.202 24.2917H138.447L135.596 27.0621L138.862 30.7349H137.545L134.928 27.7028L134.089 28.5059V30.7349H133.105V24.2917H134.089V27.405L137.202 24.2917Z" fill="#A54136"/>
<defs>
<clipPath id="clip0_265_51333">
<rect width="35" height="35" fill="white" transform="translate(0 0.5)"/>
</clipPath>
</defs>
</svg>
