<svg width="1.25vw" height="1.3194vw" viewBox="0 0 18 19" fill="none" xmlns="http://www.w3.org/2000/svg">
<path d="M2.25 6.92006V11.2476C2.25 12.8376 2.25 12.8376 3.75 13.8501L7.875 16.2351C8.4975 16.5951 9.51 16.5951 10.125 16.2351L14.25 13.8501C15.75 12.8376 15.75 12.8376 15.75 11.2551V6.92006C15.75 5.33756 15.75 5.33756 14.25 4.32506L10.125 1.94006C9.51 1.58006 8.4975 1.58006 7.875 1.94006L3.75 4.32506C2.25 5.33756 2.25 5.33756 2.25 6.92006Z" stroke="#A54136" stroke-linecap="round" stroke-linejoin="round"/>
<path d="M9 11.3376C10.2426 11.3376 11.25 10.3302 11.25 9.08755C11.25 7.84491 10.2426 6.83755 9 6.83755C7.75736 6.83755 6.75 7.84491 6.75 9.08755C6.75 10.3302 7.75736 11.3376 9 11.3376Z" stroke="#A54136" stroke-linecap="round" stroke-linejoin="round"/>
</svg>
